ffmpeg started on 2026-01-18 at 19:42:45
Report written to "C:\Dev\OSPanel\domains\Java-AT\modules\ffmpeg\FFMetrics\reports\ssim_report-6.txt"
Log level: 32
Command line:
ffmpeg -hide_banner -nostdin -r 24000/1001 -i "F:\\Convert\\files\\[DC] Make Heroine ga Oosugiru - 07_Telegram_HEVC(147).mkv" -r 24000/1001 -i "F:\\Convert\\files\\[DC] Make Heroine ga Oosugiru - 07_Telegram.mp4" -lavfi "[0:v]settb=AVTB,setpts=PTS-STARTPTS,format=pix_fmts=yuv420p10le,fps=24000/1001,scale=1920:1080:flags=lanczos:param0=3:out_range=limited:out_color_matrix=bt709:out_chroma_loc=left,setsar=1/1,setdar=(1920/1080)*(1/1),colorspace=format=yuv420p10:range=tv:primaries=bt709:trc=bt709:space=bt709:fast=0[main];[1:v]settb=AVTB,setpts=PTS-STARTPTS,format=pix_fmts=yuv420p,fps=24000/1001,scale=1920:1080:flags=lanczos:param0=3:out_range=limited:out_color_matrix=bt709:out_chroma_loc=left,setsar=1.000,setdar=1.778,colorspace=format=yuv420p:range=tv:primaries=bt709:trc=bt709:space=bt709:fast=0[ref];[main][ref]ssim=eof_action=endall:stats_file='C\\:/Dev/OSPanel/domains/Java-AT/modules/ffmpeg/FFMetrics/logs/ssim_logfile-6.txt'" -f null -
Input #0, matroska,webm, from 'F:\Convert\files\[DC] Make Heroine ga Oosugiru - 07_Telegram_HEVC(147).mkv':
  Metadata:
    COMPATIBLE_BRANDS: isomiso2avc1mp41
    MAJOR_BRAND     : isom
    MINOR_VERSION   : 512
    ENCODER         : Lavf61.7.100
  Duration: 00:24:06.79, start: -0.021000, bitrate: 977 kb/s
  Stream #0:0: Video: hevc (Main 10), yuv420p10le(tv, bt709, progressive), 1920x1080 [SAR 1:1 DAR 16:9], 23.98 fps, 23.98 tbr, 1k tbn (default)
      Metadata:
        HANDLER_NAME    : VideoHandler
        VENDOR_ID       : [0][0][0][0]
        ENCODER         : Lavc61.19.100 libx265
        BPS             : 780527
        DURATION        : 00:24:06.569708333
        NUMBER_OF_FRAMES: 34683
        NUMBER_OF_BYTES : 141135935
        _STATISTICS_WRITING_APP: mkvpropedit v94.0 ('Initiate') 64-bit
        _STATISTICS_WRITING_DATE_UTC: 2026-01-17 15:04:37
        _STATISTICS_TAGS: BPS DURATION NUMBER_OF_FRAMES NUMBER_OF_BYTES
  Stream #0:1: Audio: aac (LC), 48000 Hz, stereo, fltp (default)
      Metadata:
        HANDLER_NAME    : SoundHandler
        VENDOR_ID       : [0][0][0][0]
        ENCODER         : Lavc61.19.100 aac
        BPS             : 193194
        DURATION        : 00:24:06.784000000
        NUMBER_OF_FRAMES: 67819
        NUMBER_OF_BYTES : 34938755
        _STATISTICS_WRITING_APP: mkvpropedit v94.0 ('Initiate') 64-bit
        _STATISTICS_WRITING_DATE_UTC: 2026-01-17 15:04:37
        _STATISTICS_TAGS: BPS DURATION NUMBER_OF_FRAMES NUMBER_OF_BYTES
Input #1, mov,mp4,m4a,3gp,3g2,mj2, from 'F:\Convert\files\[DC] Make Heroine ga Oosugiru - 07_Telegram.mp4':
  Metadata:
    major_brand     : isom
    minor_version   : 512
    compatible_brands: isomiso2avc1mp41
    encoder         : Lavf60.16.100
  Duration: 00:24:06.74, start: 0.000000, bitrate: 3764 kb/s
  Stream #1:0[0x1](und): Video: h264 (High) (avc1 / 0x31637661), yuv420p(tv, bt709, progressive), 1920x1080 [SAR 1:1 DAR 16:9], 3616 kb/s, 23.98 fps, 23.98 tbr, 24k tbn (default)
      Metadata:
        handler_name    : VideoHandler
        vendor_id       : [0][0][0][0]
        encoder         : Lavc60.31.102 h264_qsv
  Stream #1:1[0x2](und): Audio: aac (HE-AACv2) (mp4a / 0x6134706D), 48000 Hz, stereo, fltp, 144 kb/s (default)
      Metadata:
        handler_name    : SoundHandler
        vendor_id       : [0][0][0][0]
Stream mapping:
  Stream #0:0 (hevc) -> settb:default
  Stream #1:0 (h264) -> settb:default
  ssim:default -> Stream #0:0 (wrapped_avframe)
  Stream #0:1 -> #0:1 (aac (native) -> pcm_s16le (native))
Output #0, null, to 'pipe:':
  Metadata:
    COMPATIBLE_BRANDS: isomiso2avc1mp41
    MAJOR_BRAND     : isom
    MINOR_VERSION   : 512
    encoder         : Lavf61.7.100
  Stream #0:0: Video: wrapped_avframe, yuv420p10le(tv, bt709, progressive), 1920x1080 [SAR 1:1 DAR 16:9], q=2-31, 200 kb/s, 23.98 fps, 23.98 tbn
      Metadata:
        encoder         : Lavc61.19.100 wrapped_avframe
  Stream #0:1: Audio: pcm_s16le, 48000 Hz, stereo, s16, 1536 kb/s (default)
      Metadata:
        HANDLER_NAME    : SoundHandler
        VENDOR_ID       : [0][0][0][0]
        _STATISTICS_TAGS: BPS DURATION NUMBER_OF_FRAMES NUMBER_OF_BYTES
        BPS             : 193194
        DURATION        : 00:24:06.784000000
        NUMBER_OF_FRAMES: 67819
        NUMBER_OF_BYTES : 34938755
        _STATISTICS_WRITING_APP: mkvpropedit v94.0 ('Initiate') 64-bit
        _STATISTICS_WRITING_DATE_UTC: 2026-01-17 15:04:37
        encoder         : Lavc61.19.100 pcm_s16le
frame=  130 fps=0.0 q=-0.0 size=N/A time=00:00:05.42 bitrate=N/A speed=10.5x    frame=  322 fps=313 q=-0.0 size=N/A time=00:00:13.43 bitrate=N/A speed=13.1x    frame=  529 fps=340 q=-0.0 size=N/A time=00:00:22.06 bitrate=N/A speed=14.2x    frame=  736 fps=356 q=-0.0 size=N/A time=00:00:30.69 bitrate=N/A speed=14.9x    frame=  914 fps=355 q=-0.0 size=N/A time=00:00:38.12 bitrate=N/A speed=14.8x    frame= 1072 fps=347 q=-0.0 size=N/A time=00:00:44.71 bitrate=N/A speed=14.5x    frame= 1250 fps=346 q=-0.0 size=N/A time=00:00:52.13 bitrate=N/A speed=14.4x    frame= 1417 fps=343 q=-0.0 size=N/A time=00:00:59.10 bitrate=N/A speed=14.3x    frame= 1569 fps=338 q=-0.0 size=N/A time=00:01:05.44 bitrate=N/A speed=14.1x    frame= 1731 fps=336 q=-0.0 size=N/A time=00:01:12.19 bitrate=N/A speed=  14x    frame= 1908 fps=337 q=-0.0 size=N/A time=00:01:19.57 bitrate=N/A speed=  14x    frame= 2062 fps=333 q=-0.0 size=N/A time=00:01:26.00 bitrate=N/A speed=13.9x    frame= 2185 fps=326 q=-0.0 size=N/A time=00:01:31.13 bitrate=N/A speed=13.6x    frame= 2349 fps=325 q=-0.0 size=N/A time=00:01:37.97 bitrate=N/A speed=13.6x    frame= 2486 fps=322 q=-0.0 size=N/A time=00:01:43.68 bitrate=N/A speed=13.4x    frame= 2638 fps=320 q=-0.0 size=N/A time=00:01:50.02 bitrate=N/A speed=13.3x    frame= 2823 fps=322 q=-0.0 size=N/A time=00:01:57.74 bitrate=N/A speed=13.4x    frame= 3006 fps=324 q=-0.0 size=N/A time=00:02:05.37 bitrate=N/A speed=13.5x    frame= 3200 fps=327 q=-0.0 size=N/A time=00:02:13.46 bitrate=N/A speed=13.6x    frame= 3399 fps=330 q=-0.0 size=N/A time=00:02:21.76 bitrate=N/A speed=13.8x    frame= 3614 fps=334 q=-0.0 size=N/A time=00:02:30.73 bitrate=N/A speed=13.9x    frame= 3818 fps=337 q=-0.0 size=N/A time=00:02:39.24 bitrate=N/A speed=  14x    frame= 4016 fps=339 q=-0.0 size=N/A time=00:02:47.50 bitrate=N/A speed=14.1x    frame= 4219 fps=341 q=-0.0 size=N/A time=00:02:55.96 bitrate=N/A speed=14.2x    frame= 4430 fps=344 q=-0.0 size=N/A time=00:03:04.76 bitrate=N/A speed=14.3x    frame= 4630 fps=345 q=-0.0 size=N/A time=00:03:13.10 bitrate=N/A speed=14.4x    frame= 4831 fps=347 q=-0.0 size=N/A time=00:03:21.49 bitrate=N/A speed=14.5x    frame= 5027 fps=348 q=-0.0 size=N/A time=00:03:29.66 bitrate=N/A speed=14.5x    frame= 5223 fps=349 q=-0.0 size=N/A time=00:03:37.84 bitrate=N/A speed=14.6x    frame= 5425 fps=351 q=-0.0 size=N/A time=00:03:46.26 bitrate=N/A speed=14.6x    frame= 5627 fps=352 q=-0.0 size=N/A time=00:03:54.69 bitrate=N/A speed=14.7x    frame= 5835 fps=354 q=-0.0 size=N/A time=00:04:03.36 bitrate=N/A speed=14.7x    frame= 6035 fps=355 q=-0.0 size=N/A time=00:04:11.70 bitrate=N/A speed=14.8x    frame= 6242 fps=356 q=-0.0 size=N/A time=00:04:20.34 bitrate=N/A speed=14.9x    frame= 6447 fps=357 q=-0.0 size=N/A time=00:04:28.89 bitrate=N/A speed=14.9x    frame= 6647 fps=358 q=-0.0 size=N/A time=00:04:37.23 bitrate=N/A speed=14.9x    frame= 6863 fps=360 q=-0.0 size=N/A time=00:04:46.24 bitrate=N/A speed=  15x    frame= 7063 fps=360 q=-0.0 size=N/A time=00:04:54.58 bitrate=N/A speed=  15x    frame= 7262 fps=361 q=-0.0 size=N/A time=00:05:02.88 bitrate=N/A speed=15.1x    frame= 7456 fps=362 q=-0.0 size=N/A time=00:05:10.97 bitrate=N/A speed=15.1x    frame= 7646 fps=362 q=-0.0 size=N/A time=00:05:18.90 bitrate=N/A speed=15.1x    frame= 7852 fps=362 q=-0.0 size=N/A time=00:05:27.49 bitrate=N/A speed=15.1x    frame= 8050 fps=363 q=-0.0 size=N/A time=00:05:35.75 bitrate=N/A speed=15.1x    frame= 8251 fps=364 q=-0.0 size=N/A time=00:05:44.13 bitrate=N/A speed=15.2x    frame= 8454 fps=364 q=-0.0 size=N/A time=00:05:52.60 bitrate=N/A speed=15.2x    frame= 8661 fps=365 q=-0.0 size=N/A time=00:06:01.23 bitrate=N/A speed=15.2x    frame= 8865 fps=366 q=-0.0 size=N/A time=00:06:09.74 bitrate=N/A speed=15.3x    frame= 9064 fps=366 q=-0.0 size=N/A time=00:06:18.04 bitrate=N/A speed=15.3x    frame= 9265 fps=367 q=-0.0 size=N/A time=00:06:26.42 bitrate=N/A speed=15.3x    frame= 9471 fps=367 q=-0.0 size=N/A time=00:06:35.01 bitrate=N/A speed=15.3x    frame= 9671 fps=368 q=-0.0 size=N/A time=00:06:43.36 bitrate=N/A speed=15.3x    frame= 9871 fps=368 q=-0.0 size=N/A time=00:06:51.70 bitrate=N/A speed=15.4x    frame=10076 fps=369 q=-0.0 size=N/A time=00:07:00.25 bitrate=N/A speed=15.4x    frame=10281 fps=369 q=-0.0 size=N/A time=00:07:08.80 bitrate=N/A speed=15.4x    frame=10480 fps=370 q=-0.0 size=N/A time=00:07:17.10 bitrate=N/A speed=15.4x    frame=10680 fps=370 q=-0.0 size=N/A time=00:07:25.44 bitrate=N/A speed=15.4x    frame=10881 fps=370 q=-0.0 size=N/A time=00:07:33.82 bitrate=N/A speed=15.4x    frame=11083 fps=371 q=-0.0 size=N/A time=00:07:42.25 bitrate=N/A speed=15.5x    frame=11275 fps=371 q=-0.0 size=N/A time=00:07:50.26 bitrate=N/A speed=15.5x    frame=11474 fps=371 q=-0.0 size=N/A time=00:07:58.56 bitrate=N/A speed=15.5x    frame=11673 fps=371 q=-0.0 size=N/A time=00:08:06.86 bitrate=N/A speed=15.5x    frame=11885 fps=372 q=-0.0 size=N/A time=00:08:15.70 bitrate=N/A speed=15.5x    frame=12090 fps=372 q=-0.0 size=N/A time=00:08:24.25 bitrate=N/A speed=15.5x    frame=12286 fps=372 q=-0.0 size=N/A time=00:08:32.42 bitrate=N/A speed=15.5x    frame=12493 fps=373 q=-0.0 size=N/A time=00:08:41.06 bitrate=N/A speed=15.5x    frame=12698 fps=373 q=-0.0 size=N/A time=00:08:49.61 bitrate=N/A speed=15.6x    frame=12903 fps=373 q=-0.0 size=N/A time=00:08:58.16 bitrate=N/A speed=15.6x    frame=13104 fps=374 q=-0.0 size=N/A time=00:09:06.54 bitrate=N/A speed=15.6x    frame=13300 fps=374 q=-0.0 size=N/A time=00:09:14.72 bitrate=N/A speed=15.6x    frame=13501 fps=374 q=-0.0 size=N/A time=00:09:23.10 bitrate=N/A speed=15.6x    frame=13700 fps=374 q=-0.0 size=N/A time=00:09:31.40 bitrate=N/A speed=15.6x    frame=13901 fps=374 q=-0.0 size=N/A time=00:09:39.78 bitrate=N/A speed=15.6x    frame=14089 fps=374 q=-0.0 size=N/A time=00:09:47.62 bitrate=N/A speed=15.6x    frame=14286 fps=374 q=-0.0 size=N/A time=00:09:55.84 bitrate=N/A speed=15.6x    frame=14494 fps=375 q=-0.0 size=N/A time=00:10:04.52 bitrate=N/A speed=15.6x    frame=14683 fps=375 q=-0.0 size=N/A time=00:10:12.40 bitrate=N/A speed=15.6x    frame=14882 fps=375 q=-0.0 size=N/A time=00:10:20.70 bitrate=N/A speed=15.6x    frame=15082 fps=375 q=-0.0 size=N/A time=00:10:29.04 bitrate=N/A speed=15.6x    frame=15260 fps=375 q=-0.0 size=N/A time=00:10:36.46 bitrate=N/A speed=15.6x    frame=15452 fps=375 q=-0.0 size=N/A time=00:10:44.47 bitrate=N/A speed=15.6x    frame=15656 fps=375 q=-0.0 size=N/A time=00:10:52.98 bitrate=N/A speed=15.6x    frame=15854 fps=375 q=-0.0 size=N/A time=00:11:01.24 bitrate=N/A speed=15.6x    frame=16063 fps=375 q=-0.0 size=N/A time=00:11:09.96 bitrate=N/A speed=15.7x    frame=16270 fps=376 q=-0.0 size=N/A time=00:11:18.59 bitrate=N/A speed=15.7x    frame=16468 fps=376 q=-0.0 size=N/A time=00:11:26.85 bitrate=N/A speed=15.7x    frame=16665 fps=376 q=-0.0 size=N/A time=00:11:35.06 bitrate=N/A speed=15.7x    frame=16870 fps=376 q=-0.0 size=N/A time=00:11:43.61 bitrate=N/A speed=15.7x    frame=17072 fps=376 q=-0.0 size=N/A time=00:11:52.04 bitrate=N/A speed=15.7x    frame=17277 fps=376 q=-0.0 size=N/A time=00:12:00.59 bitrate=N/A speed=15.7x    frame=17476 fps=377 q=-0.0 size=N/A time=00:12:08.89 bitrate=N/A speed=15.7x    frame=17674 fps=377 q=-0.0 size=N/A time=00:12:17.15 bitrate=N/A speed=15.7x    frame=17874 fps=377 q=-0.0 size=N/A time=00:12:25.49 bitrate=N/A speed=15.7x    frame=18064 fps=377 q=-0.0 size=N/A time=00:12:33.41 bitrate=N/A speed=15.7x    frame=18251 fps=377 q=-0.0 size=N/A time=00:12:41.21 bitrate=N/A speed=15.7x    frame=18451 fps=377 q=-0.0 size=N/A time=00:12:49.56 bitrate=N/A speed=15.7x    frame=18654 fps=377 q=-0.0 size=N/A time=00:12:58.02 bitrate=N/A speed=15.7x    frame=18859 fps=377 q=-0.0 size=N/A time=00:13:06.57 bitrate=N/A speed=15.7x    frame=19062 fps=377 q=-0.0 size=N/A time=00:13:15.04 bitrate=N/A speed=15.7x    frame=19273 fps=377 q=-0.0 size=N/A time=00:13:23.84 bitrate=N/A speed=15.7x    frame=19467 fps=378 q=-0.0 size=N/A time=00:13:31.93 bitrate=N/A speed=15.7x    frame=19672 fps=378 q=-0.0 size=N/A time=00:13:40.48 bitrate=N/A speed=15.8x    frame=19879 fps=378 q=-0.0 size=N/A time=00:13:49.11 bitrate=N/A speed=15.8x    frame=20082 fps=378 q=-0.0 size=N/A time=00:13:57.58 bitrate=N/A speed=15.8x    frame=20285 fps=378 q=-0.0 size=N/A time=00:14:06.05 bitrate=N/A speed=15.8x    frame=20477 fps=378 q=-0.0 size=N/A time=00:14:14.06 bitrate=N/A speed=15.8x    frame=20659 fps=378 q=-0.0 size=N/A time=00:14:21.65 bitrate=N/A speed=15.8x    frame=20873 fps=378 q=-0.0 size=N/A time=00:14:30.57 bitrate=N/A speed=15.8x    frame=21063 fps=378 q=-0.0 size=N/A time=00:14:38.50 bitrate=N/A speed=15.8x    frame=21258 fps=378 q=-0.0 size=N/A time=00:14:46.63 bitrate=N/A speed=15.8x    frame=21459 fps=378 q=-0.0 size=N/A time=00:14:55.01 bitrate=N/A speed=15.8x    frame=21657 fps=378 q=-0.0 size=N/A time=00:15:03.27 bitrate=N/A speed=15.8x    frame=21844 fps=378 q=-0.0 size=N/A time=00:15:11.07 bitrate=N/A speed=15.8x    frame=22040 fps=378 q=-0.0 size=N/A time=00:15:19.25 bitrate=N/A speed=15.8x    frame=22238 fps=378 q=-0.0 size=N/A time=00:15:27.50 bitrate=N/A speed=15.8x    frame=22438 fps=378 q=-0.0 size=N/A time=00:15:35.85 bitrate=N/A speed=15.8x    frame=22632 fps=378 q=-0.0 size=N/A time=00:15:43.94 bitrate=N/A speed=15.8x    frame=22828 fps=378 q=-0.0 size=N/A time=00:15:52.11 bitrate=N/A speed=15.8x    frame=23021 fps=378 q=-0.0 size=N/A time=00:16:00.16 bitrate=N/A speed=15.8x    frame=23215 fps=378 q=-0.0 size=N/A time=00:16:08.25 bitrate=N/A speed=15.8x    frame=23410 fps=378 q=-0.0 size=N/A time=00:16:16.39 bitrate=N/A speed=15.8x    frame=23612 fps=378 q=-0.0 size=N/A time=00:16:24.81 bitrate=N/A speed=15.8x    frame=23819 fps=379 q=-0.0 size=N/A time=00:16:33.45 bitrate=N/A speed=15.8x    frame=24011 fps=379 q=-0.0 size=N/A time=00:16:41.45 bitrate=N/A speed=15.8x    frame=24207 fps=379 q=-0.0 size=N/A time=00:16:49.63 bitrate=N/A speed=15.8x    frame=24405 fps=379 q=-0.0 size=N/A time=00:16:57.89 bitrate=N/A speed=15.8x    frame=24614 fps=379 q=-0.0 size=N/A time=00:17:06.60 bitrate=N/A speed=15.8x    frame=24809 fps=379 q=-0.0 size=N/A time=00:17:14.74 bitrate=N/A speed=15.8x    frame=25013 fps=379 q=-0.0 size=N/A time=00:17:23.25 bitrate=N/A speed=15.8x    frame=25215 fps=379 q=-0.0 size=N/A time=00:17:31.67 bitrate=N/A speed=15.8x    frame=25407 fps=379 q=-0.0 size=N/A time=00:17:39.68 bitrate=N/A speed=15.8x    frame=25606 fps=379 q=-0.0 size=N/A time=00:17:47.98 bitrate=N/A speed=15.8x    frame=25802 fps=379 q=-0.0 size=N/A time=00:17:56.15 bitrate=N/A speed=15.8x    frame=25996 fps=379 q=-0.0 size=N/A time=00:18:04.24 bitrate=N/A speed=15.8x    frame=26188 fps=379 q=-0.0 size=N/A time=00:18:12.25 bitrate=N/A speed=15.8x    frame=26395 fps=379 q=-0.0 size=N/A time=00:18:20.89 bitrate=N/A speed=15.8x    frame=26591 fps=379 q=-0.0 size=N/A time=00:18:29.06 bitrate=N/A speed=15.8x    frame=26790 fps=379 q=-0.0 size=N/A time=00:18:37.36 bitrate=N/A speed=15.8x    frame=26977 fps=379 q=-0.0 size=N/A time=00:18:45.16 bitrate=N/A speed=15.8x    frame=27170 fps=379 q=-0.0 size=N/A time=00:18:53.21 bitrate=N/A speed=15.8x    frame=27362 fps=379 q=-0.0 size=N/A time=00:19:01.22 bitrate=N/A speed=15.8x    frame=27550 fps=379 q=-0.0 size=N/A time=00:19:09.06 bitrate=N/A speed=15.8x    frame=27738 fps=379 q=-0.0 size=N/A time=00:19:16.90 bitrate=N/A speed=15.8x    frame=27928 fps=379 q=-0.0 size=N/A time=00:19:24.83 bitrate=N/A speed=15.8x    frame=28126 fps=379 q=-0.0 size=N/A time=00:19:33.08 bitrate=N/A speed=15.8x    frame=28326 fps=379 q=-0.0 size=N/A time=00:19:41.43 bitrate=N/A speed=15.8x    frame=28519 fps=379 q=-0.0 size=N/A time=00:19:49.47 bitrate=N/A speed=15.8x    frame=28711 fps=379 q=-0.0 size=N/A time=00:19:57.48 bitrate=N/A speed=15.8x    frame=28887 fps=378 q=-0.0 size=N/A time=00:20:04.82 bitrate=N/A speed=15.8x    frame=29059 fps=378 q=-0.0 size=N/A time=00:20:12.00 bitrate=N/A speed=15.8x    frame=29248 fps=378 q=-0.0 size=N/A time=00:20:19.88 bitrate=N/A speed=15.8x    frame=29440 fps=378 q=-0.0 size=N/A time=00:20:27.89 bitrate=N/A speed=15.8x    frame=29625 fps=378 q=-0.0 size=N/A time=00:20:35.60 bitrate=N/A speed=15.8x    frame=29809 fps=378 q=-0.0 size=N/A time=00:20:43.28 bitrate=N/A speed=15.8x    frame=29986 fps=377 q=-0.0 size=N/A time=00:20:50.66 bitrate=N/A speed=15.7x    frame=30170 fps=377 q=-0.0 size=N/A time=00:20:58.34 bitrate=N/A speed=15.7x    frame=30366 fps=377 q=-0.0 size=N/A time=00:21:06.51 bitrate=N/A speed=15.7x    frame=30568 fps=377 q=-0.0 size=N/A time=00:21:14.94 bitrate=N/A speed=15.7x    frame=30752 fps=377 q=-0.0 size=N/A time=00:21:22.61 bitrate=N/A speed=15.7x    frame=30954 fps=377 q=-0.0 size=N/A time=00:21:31.03 bitrate=N/A speed=15.7x    frame=31152 fps=377 q=-0.0 size=N/A time=00:21:39.29 bitrate=N/A speed=15.7x    frame=31339 fps=377 q=-0.0 size=N/A time=00:21:47.09 bitrate=N/A speed=15.7x    frame=31531 fps=377 q=-0.0 size=N/A time=00:21:55.10 bitrate=N/A speed=15.7x    frame=31730 fps=377 q=-0.0 size=N/A time=00:22:03.40 bitrate=N/A speed=15.7x    frame=31915 fps=377 q=-0.0 size=N/A time=00:22:11.12 bitrate=N/A speed=15.7x    frame=32112 fps=377 q=-0.0 size=N/A time=00:22:19.33 bitrate=N/A speed=15.7x    frame=32306 fps=377 q=-0.0 size=N/A time=00:22:27.42 bitrate=N/A speed=15.7x    frame=32503 fps=377 q=-0.0 size=N/A time=00:22:35.64 bitrate=N/A speed=15.7x    frame=32666 fps=377 q=-0.0 size=N/A time=00:22:42.44 bitrate=N/A speed=15.7x    frame=32838 fps=377 q=-0.0 size=N/A time=00:22:49.61 bitrate=N/A speed=15.7x    frame=33023 fps=377 q=-0.0 size=N/A time=00:22:57.33 bitrate=N/A speed=15.7x    frame=33209 fps=376 q=-0.0 size=N/A time=00:23:05.09 bitrate=N/A speed=15.7x    frame=33392 fps=376 q=-0.0 size=N/A time=00:23:12.72 bitrate=N/A speed=15.7x    frame=33560 fps=376 q=-0.0 size=N/A time=00:23:19.73 bitrate=N/A speed=15.7x    frame=33721 fps=376 q=-0.0 size=N/A time=00:23:26.44 bitrate=N/A speed=15.7x    frame=33847 fps=375 q=-0.0 size=N/A time=00:23:31.70 bitrate=N/A speed=15.6x    frame=34004 fps=375 q=-0.0 size=N/A time=00:23:38.25 bitrate=N/A speed=15.6x    frame=34173 fps=374 q=-0.0 size=N/A time=00:23:45.29 bitrate=N/A speed=15.6x    frame=34324 fps=374 q=-0.0 size=N/A time=00:23:51.59 bitrate=N/A speed=15.6x    frame=34458 fps=373 q=-0.0 size=N/A time=00:23:57.18 bitrate=N/A speed=15.6x    frame=34647 fps=373 q=-0.0 size=N/A time=00:24:05.06 bitrate=N/A speed=15.6x    [Parsed_ssim_16 @ 000001a18c975cc0] SSIM Y:0.994184 (22.353984) U:0.993983 (22.206416) V:0.993593 (21.933548) All:0.994052 (22.256492)
[out#0/null @ 000001a1ff473a00] video:14903KiB audio:271276KiB subtitle:0KiB other streams:0KiB global headers:0KiB muxing overhead: unknown
frame=34683 fps=373 q=-0.0 Lsize=N/A time=00:24:06.57 bitrate=N/A speed=15.6x    
